PathFileType	4	(X/Y/Z)	AB12\squats_1.trc
DataRate	CameraRate	NumFrames	NumMarkers	Units	OrigDataRate	OrigDataStartFrame	OrigNumFrames
200.000000	200.000000	5	35	mm	200.000000	76	304
Frame#	Time	C7			LSHO			STRN			LASI			RASI			LPSI			RPSI			LGTR			RGTR			LTHC			LTHL			LTHR			LKNE			LMKNE			LSHC			LSHL			LSHR			LANK			LMANK			LMT1			LMT5			LCAL			RTHC			RTHL			RTHR			RKNE			RMKNE			RSHC			RSHL			RSHR			RANK			RMANK			RMT1			RMT5			RCAL			
		X1	Y1	Z1	X2	Y2	Z2	X3	Y3	Z3	X4	Y4	Z4	X5	Y5	Z5	X6	Y6	Z6	X7	Y7	Z7	X8	Y8	Z8	X9	Y9	Z9	X10	Y10	Z10	X11	Y11	Z11	X12	Y12	Z12	X13	Y13	Z13	X14	Y14	Z14	X15	Y15	Z15	X16	Y16	Z16	X17	Y17	Z17	X18	Y18	Z18	X19	Y19	Z19	X20	Y20	Z20	X21	Y21	Z21	X22	Y22	Z22	X23	Y23	Z23	X24	Y24	Z24	X25	Y25	Z25	X26	Y26	Z26	X27	Y27	Z27	X28	Y28	Z28	X29	Y29	Z29	X30	Y30	Z30	X31	Y31	Z31	X32	Y32	Z32	X33	Y33	Z33	X34	Y34	Z34	X35	Y35	Z35	

77	21.37	-3558.154554539169	1112.660508765342	2464.618581897795	-3608.494296494997	1062.835970384624	2585.210137713387	-3628.364519915555	966.9718039604498	2470.480184374478	-3401.581642220639	717.0422114334522	2635.990070666367	-3396.548569528335	726.4804218148208	2355.060295970271	-3217.396942942179	819.4684848258006	2533.557057961652	-3209.476575334798	812.2805817198076	2444.177166343325	-3289.005022979798	719.1497800042213	2713.773414831523	-3296.846054013547	684.6576963670935	2279.43665075216	-3448.611277814762	556.8144242366728	2723.796773979223	-3578.996614005562	565.5203930561975	2659.117056623375	-3488.11964945298	424.0148467070716	2640.971511100833	-3603.757575301046	413.2270931576065	2732.484542843931	-3619.643901118435	402.1878532087662	2600.126337103203	-3513.782283020159	272.2159120240418	2735.109292251614	-3520.616504786188	177.7839992236404	2684.170214814658	-3425.252242436828	197.6971241396698	2658.8980901469	-3409.850282315576	86.32656644465833	2708.213981396401	-3423.965817007585	80.69639551435716	2620.953373449942	-3546.785521069588	47.21508784884153	2664.282706389627	-3507.27385709036	41.65686816332395	2747.743166527016	-3332.198503516124	64.18764122743833	2673.534210394579	-3504.567893049298	414.2647738172583	2374.551559282329	-3430.226703322762	524.9568098793892	2282.606238417728	-3560.774023959049	576.6399898729052	2342.527469961633	-3586.611958356771	410.9709918459541	2275.724186363753	-3611.460163952544	384.5430789493509	2401.866455599185	-3406.882348713475	184.310390153677	2344.56957942363	-3491.716498792438	275.217726232822	2277.415497278621	-3511.371330710942	178.8291442964201	2323.492370337427	-3394.656914769614	91.58405991201298	2299.14481515234	-3415.617878499558	86.27666757884569	2384.851332398901	-3530.284884597696	53.14587902419063	2340.350061279962	-3494.089594168933	48.46563393469079	2267.486159045378	-3322.559134476361	70.89788366229783	2347.813770487832	
78	21.375	-3558.658167165	1107.644504462518	2464.575485118614	-3609.025436667849	1057.881721680693	2585.180392902592	-3628.52644630852	961.9188169335996	2470.615635912059	-3401.249005825194	713.1346659964903	2636.258373899447	-3396.071634260207	722.5460054451781	2355.293411206014	-3216.970065955791	815.3635698153516	2533.821483552822	-3208.987751862098	808.1354091445586	2444.476855882389	-3288.608442383815	715.3754084722318	2714.196677275384	-3296.203477895512	680.7182316488022	2279.649357456445	-3448.766615801427	554.2073735180127	2724.009269320189	-3579.077575987616	564.0902914290735	2659.320586121232	-3489.395972624734	422.0415875849595	2641.171920809465	-3605.062913012086	412.1662810078839	2732.767213191124	-3621.04475222477	401.1571097350669	2600.256282848142	-3514.724296554159	271.6690904560049	2735.212304417618	-3521.141226314483	177.27599645363	2684.192331900191	-3425.858028453053	197.5963670362838	2658.941509527803	-3409.929112139997	86.31592617949971	2708.168564185729	-3424.117399818947	80.65779784572904	2620.885977201498	-3546.818828601932	47.18202908934509	2664.300117641761	-3507.273706006814	41.65467391761864	2747.744897835357	-3332.248523713175	64.26568505777503	2673.470841069543	-3505.822258421812	412.2716838460769	2374.647828208409	-3430.51394879697	522.2068728117515	2282.782078850913	-3560.712424653426	575.10892881902	2342.540222050994	-3587.720303397754	409.9511579118206	2275.541115673003	-3612.806050905208	383.5346090526066	2401.806447201402	-3407.334309696393	184.2343937144238	2344.682306373483	-3492.498466626883	274.8242992547636	2277.426609152373	-3511.821923261775	178.4235754538713	2323.518212900288	-3394.732052009153	91.58375397613207	2299.258669774611	-3415.718402802202	86.2146805794017	2384.945921679793	-3530.298971673058	53.09052620722434	2340.381392406953	-3494.087267981002	48.47296407917926	2267.50708690964	-3322.614293896736	70.92611582780124	2347.873703249621	
79	21.38	-3559.151961639171	1102.650034711531	2464.542500788541	-3609.546754436372	1052.948699192191	2585.16068927458	-3628.689804847461	956.8885836899927	2470.756053786198	-3400.933682479128	709.2549461260816	2636.512852067344	-3395.589514932494	718.6175056706874	2355.510598143113	-3216.548282536249	811.2654926607123	2534.078242122835	-3208.503481543248	803.9920516119331	2444.768649174857	-3288.228433732992	711.6202953756753	2714.610210462931	-3295.547145269662	676.7661874473722	2279.851258428833	-3448.926759890453	551.6179091584191	2724.22240454063	-3579.146002299866	562.6538831525806	2659.514648033375	-3490.653439744902	420.0712886000222	2641.375694752911	-3606.340290764086	411.1151003673878	2733.053700004469	-3622.417382131643	400.1274741243412	2600.386554981114	-3515.647115593689	271.1268554076546	2735.316657081272	-3521.655254878363	176.7730824260834	2684.216789767479	-3426.451622676111	197.4910347238232	2658.990196684787	-3410.009608520196	86.30523350194869	2708.127046744543	-3424.268516940816	80.62077301449894	2620.822215150733	-3546.851188263558	47.14949574607625	2664.317030883057	-3507.273823927286	41.65314345696925	2747.747027595944	-3332.295081243437	64.34319844037651	2673.410340680563	-3507.053252941826	410.2951905966164	2374.759669760209	-3430.780446478629	519.4527531890323	2282.96975938067	-3560.62790323563	573.5824172747397	2342.547370092787	-3588.797891888119	408.9366482359182	2275.366127742124	-3614.133559412653	382.539133619467	2401.759022189508	-3407.781415832956	184.1618570122162	2344.805749042198	-3493.268003245047	274.4377334009174	2277.44863007116	-3512.267127092777	178.0281490122772	2323.551414260089	-3394.811436383402	91.58591968874707	2299.381740409265	-3415.825628152055	86.15341946638523	2385.04356918169	-3530.315124899225	53.02917065295748	2340.414524662483	-3494.085353364957	48.480854331127	2267.529403952428	-3322.672361044737	70.95850700137821	2347.936687609702	
80	21.385	-3559.635559398385	1097.677670379567	2464.51863992162	-3610.057882124136	1048.037477769071	2585.150034131331	-3628.855033186714	951.8820346559916	2470.900509975865	-3400.635675409035	705.4026536967598	2636.752714272145	-3395.102618555872	714.696698126244	2355.712601803647	-3216.131784266534	807.175295314986	2534.32840126127	-3208.023893561238	799.8527221461179	2445.053621211792	-3287.867276133174	707.884944154227	2715.014817789392	-3294.878743023008	672.8066846822406	2280.042672839495	-3449.093757431779	549.0493650476577	2724.435777974384	-3579.202907751843	561.2118369998426	2659.695359521675	-3491.89080179495	418.102813850091	2641.585031759952	-3607.590151810054	410.0740805649066	2733.344071143248	-3623.760555999528	399.0983493050493	2600.517334934735	-3516.550931357007	270.5890470853637	2735.422386006553	-3522.15875147291	176.2751914029071	2684.2431944421	-3427.032616251219	197.3810574410099	2659.044309192704	-3410.092509098425	86.29509181885467	2708.089635342821	-3424.418692242193	80.5851302893083	2620.762211998702	-3546.882734789643	47.11734708297785	2664.333287351025	-3507.27413756793	41.65229107003832	2747.749644749798	-3332.338334090663	64.41975731982102	2673.352861139296	-3508.258776373735	408.3358728897412	2374.882220644965	-3431.028258596478	516.6999874280966	2283.167093127108	-3560.520000126115	572.0611546394209	2342.554330500949	-3589.845712942299	407.9282218647193	2275.199169598036	-3615.440890877294	381.5552849124819	2401.724160529097	-3408.223274305894	184.0922347715849	2344.939001440585	-3494.024964300703	274.0574027179076	2277.48092323987	-3512.706048222954	177.6417848943015	2323.591684379021	-3394.895207572836	91.58990326860248	2299.513216568005	-3415.939651343251	86.09257864060365	2385.143894364541	-3530.333457477692	52.96239041588271	2340.448981603856	-3494.083840621106	48.48927177256538	2267.552877735416	-3322.732623780886	70.99454265738363	2348.002626612946	
81	21.39	-3560.108517791203	1092.728038425789	2464.502846088147	-3610.558386302603	1043.148697836001	2585.147370309925	-3629.022489933036	946.9002054465743	2471.048046801972	-3400.354943731141	701.5772583946259	2636.977380130349	-3394.611637670552	710.785676725582	2355.900436488466	-3215.720782631852	803.0940771668069	2534.573116809104	-3207.549041802558	795.7196809903978	2445.332977306973	-3287.527026097628	704.1698571693664	2715.411387398769	-3294.200331360243	668.8453134035589	2280.224169265393	-3449.269151067412	546.5047438633455	2724.648925394153	-3579.249094171914	559.7649746769953	2659.859140855617	-3493.106856341464	416.1352968186239	2641.801702167041	-3608.812902926	409.0436829551256	2733.638211294709	-3625.073249298398	398.0693168533791	2600.648638287554	-3517.435947508749	270.0555933761102	2735.529393783252	-3522.65185559821	175.7822863578199	2684.271095003228	-3427.600669090763	197.2664655068985	2659.103796267025	-3410.178505560055	86.28610463307092	2708.05649082915	-3424.567454284217	80.55065079098462	2620.706017563609	-3546.913612386478	47.08545155142694	2664.348743520663	-3507.274546789436	41.65209975894031	2747.752828055602	-3332.378508950639	64.49495782692971	2673.298477910321	-3509.436917992643	406.3944565546431	2375.010598481325	-3431.25967200233	513.954282870612	2283.371753394575	-3560.388589281794	570.5457219997578	2342.566448620345	-3590.864860572416	406.926657888203	2275.040074229119	-3616.726375242683	380.5817447129014	2401.70169497531	-3408.659510356292	184.0249159756848	2345.081070460224	-3494.769192742886	273.6826705150693	2277.522747103264	-3513.137795174584	177.2633880956154	2323.638662874767	-3394.983466060109	91.59509897744095	2299.652225776887	-3416.060509856034	86.03178355178994	2385.246527597977	-3530.354080022587	52.89084171594356	2340.484269467098	-3494.082723901011	48.49817073227532	2267.577275159391	-3322.794415658892	71.03365436366309	2348.071413835456	
